<svg id="svg" xmlns="http://www.w3.org/2000/svg" xmlns:xlink="http://www.w3.org/1999/xlink" width="400" height="170" viewBox="0, 0, 400,170" version="1.1"><g id="svgg"><path id="path0" d="M101.443 0.383 C 101.222 0.887,100.597 0.955,94.048 1.182 C 91.195 1.281,88.363 1.439,87.755 1.533 C 85.359 1.903,84.228 2.031,83.294 2.036 C 82.759 2.038,81.840 2.187,81.254 2.365 C 80.667 2.543,79.460 2.777,78.571 2.884 C 77.683 2.991,76.363 3.152,75.639 3.241 C 74.915 3.330,74.035 3.516,73.683 3.653 C 73.332 3.791,72.623 3.975,72.109 4.062 C 70.650 4.310,68.544 4.749,67.517 5.019 C 67.003 5.155,66.122 5.387,65.561 5.535 C 65.000 5.684,64.120 5.904,63.605 6.026 C 63.091 6.147,62.304 6.372,61.856 6.525 C 61.409 6.678,60.911 6.804,60.751 6.806 C 60.590 6.808,59.962 6.992,59.354 7.215 C 57.846 7.768,57.329 7.943,56.633 8.139 C 56.305 8.230,55.502 8.508,54.847 8.755 C 54.192 9.002,53.406 9.269,53.099 9.347 C 52.792 9.426,52.448 9.565,52.334 9.657 C 52.219 9.748,51.694 9.947,51.166 10.098 C 50.639 10.249,49.770 10.603,49.236 10.884 C 48.702 11.165,48.167 11.395,48.048 11.395 C 47.834 11.395,46.692 11.895,43.878 13.221 C 43.082 13.595,42.267 13.953,42.065 14.015 C 41.863 14.078,41.605 14.241,41.491 14.377 C 41.378 14.514,41.160 14.626,41.007 14.626 C 40.671 14.626,39.395 15.290,38.019 16.181 C 37.462 16.542,36.888 16.839,36.743 16.842 C 36.598 16.845,36.173 17.073,35.799 17.349 C 35.425 17.624,34.935 17.931,34.710 18.029 C 34.485 18.128,33.964 18.436,33.553 18.713 C 33.142 18.991,32.743 19.218,32.665 19.218 C 32.588 19.218,32.428 19.334,32.311 19.475 C 32.193 19.617,31.705 19.929,31.227 20.168 C 30.749 20.408,30.204 20.741,30.017 20.909 C 29.830 21.077,29.332 21.435,28.912 21.704 C 28.491 21.974,28.070 22.252,27.976 22.323 C 27.640 22.580,26.518 23.397,25.586 24.065 C 22.634 26.179,19.661 28.819,16.241 32.362 C 13.669 35.027,13.620 35.083,12.281 36.834 C 10.015 39.800,9.354 40.701,9.354 40.827 C 9.354 40.901,9.253 41.063,9.130 41.187 C 8.343 41.977,4.841 48.498,3.666 51.361 C 3.416 51.969,3.100 52.671,2.963 52.923 C 2.827 53.174,2.644 53.709,2.558 54.113 C 2.295 55.344,1.755 57.127,1.576 57.354 C 1.483 57.472,1.359 58.050,1.301 58.639 C 1.242 59.228,1.111 59.864,1.011 60.053 C 0.910 60.241,0.718 61.634,0.585 63.148 C 0.453 64.662,0.267 65.926,0.172 65.957 C -0.060 66.035,-0.066 79.541,0.166 79.620 C 0.258 79.651,0.378 80.360,0.434 81.195 C 0.490 82.030,0.721 83.428,0.948 84.301 C 1.175 85.174,1.361 86.130,1.361 86.426 C 1.361 86.721,1.468 87.084,1.598 87.232 C 1.830 87.492,2.227 88.759,2.559 90.294 C 2.743 91.142,3.525 93.197,3.759 93.444 C 3.843 93.533,3.912 93.714,3.912 93.848 C 3.912 94.574,7.644 102.265,9.086 104.508 C 9.266 104.788,9.677 105.438,10.000 105.952 C 11.326 108.067,12.749 110.112,14.414 112.295 C 14.999 113.063,15.611 113.866,15.775 114.080 C 15.938 114.294,16.190 114.600,16.336 114.760 C 16.481 114.920,17.265 115.855,18.077 116.837 C 18.889 117.819,19.639 118.710,19.743 118.818 C 19.847 118.926,20.058 119.158,20.213 119.335 C 21.783 121.136,24.311 123.733,26.190 125.476 C 27.453 126.647,28.869 127.964,29.337 128.402 C 29.804 128.840,31.220 130.026,32.483 131.038 C 33.746 132.049,34.894 132.983,35.034 133.112 C 35.174 133.242,35.787 133.707,36.395 134.145 C 37.003 134.583,37.538 134.981,37.585 135.030 C 37.632 135.079,38.435 135.693,39.371 136.395 C 40.306 137.096,41.110 137.710,41.156 137.759 C 41.318 137.929,46.441 141.327,46.535 141.327 C 46.617 141.327,47.159 141.680,49.185 143.055 C 49.439 143.227,49.701 143.367,49.767 143.367 C 49.834 143.367,50.009 143.473,50.157 143.603 C 50.304 143.733,50.846 144.062,51.361 144.335 C 51.875 144.607,52.487 144.954,52.721 145.105 C 53.363 145.518,54.947 146.400,55.558 146.683 C 55.856 146.821,56.142 147.003,56.194 147.087 C 56.247 147.172,56.500 147.294,56.759 147.358 C 57.017 147.423,57.343 147.575,57.483 147.697 C 57.623 147.819,57.909 147.971,58.119 148.035 C 58.446 148.135,59.296 148.589,60.204 149.151 C 60.344 149.238,60.957 149.542,61.565 149.827 C 62.173 150.112,62.785 150.413,62.925 150.497 C 63.065 150.581,63.869 150.969,64.711 151.360 C 65.553 151.751,66.624 152.251,67.092 152.471 C 68.133 152.961,69.012 153.327,69.500 153.474 C 69.702 153.535,69.960 153.696,70.073 153.833 C 70.187 153.970,70.414 154.082,70.578 154.082 C 70.742 154.082,71.440 154.338,72.130 154.650 C 72.820 154.963,73.614 155.275,73.895 155.344 C 74.175 155.412,74.520 155.566,74.660 155.686 C 74.800 155.805,75.527 156.118,76.276 156.381 C 77.024 156.644,77.789 156.939,77.976 157.036 C 78.712 157.419,82.414 158.673,82.807 158.673 C 82.961 158.673,83.239 158.776,83.423 158.901 C 83.608 159.026,84.447 159.337,85.289 159.593 C 86.131 159.849,87.241 160.199,87.755 160.371 C 88.270 160.543,89.264 160.846,89.966 161.044 C 90.668 161.243,91.596 161.518,92.030 161.655 C 92.463 161.792,92.961 161.908,93.135 161.912 C 93.310 161.916,93.759 162.034,94.133 162.175 C 94.760 162.410,95.874 162.731,99.104 163.611 C 99.780 163.795,100.469 163.945,100.634 163.945 C 100.800 163.945,101.471 164.093,102.126 164.273 C 103.933 164.773,105.561 165.148,106.973 165.390 C 108.487 165.650,111.069 166.221,111.904 166.481 C 112.230 166.583,112.865 166.667,113.314 166.667 C 113.763 166.667,114.682 166.779,115.356 166.915 C 116.030 167.052,117.194 167.239,117.942 167.331 C 118.690 167.423,119.759 167.617,120.316 167.763 C 120.874 167.908,121.840 168.027,122.462 168.027 C 123.085 168.027,124.236 168.137,125.020 168.272 C 126.556 168.535,129.712 168.800,133.248 168.962 C 137.459 169.155,141.879 169.635,141.978 169.911 C 142.062 170.142,157.313 170.120,157.313 169.888 C 157.313 169.255,158.828 169.001,163.515 168.851 C 169.671 168.653,173.241 168.310,177.296 167.524 C 180.198 166.963,181.978 166.667,182.455 166.667 C 182.982 166.667,184.878 166.246,186.650 165.736 C 187.117 165.602,187.959 165.412,188.520 165.314 C 189.082 165.216,190.230 164.939,191.071 164.698 C 191.913 164.457,193.023 164.160,193.537 164.039 C 194.052 163.917,194.894 163.690,195.408 163.533 C 195.923 163.377,196.879 163.092,197.534 162.899 C 198.189 162.707,199.107 162.410,199.575 162.239 C 200.043 162.068,201.037 161.734,201.786 161.498 C 203.925 160.822,204.820 160.525,205.187 160.368 C 205.374 160.287,206.063 160.024,206.718 159.782 C 207.372 159.541,208.138 159.223,208.418 159.076 C 208.699 158.930,209.423 158.623,210.027 158.396 C 210.630 158.168,211.434 157.839,211.812 157.664 C 212.191 157.490,213.112 157.069,213.861 156.731 C 214.609 156.392,215.412 156.004,215.646 155.868 C 215.880 155.732,216.401 155.467,216.804 155.278 C 217.408 154.996,220.542 153.280,221.628 152.636 C 221.786 152.543,222.476 152.139,223.160 151.738 C 223.845 151.338,224.608 150.879,224.856 150.718 C 225.690 150.177,226.912 149.490,227.041 149.490 C 227.112 149.490,227.274 149.362,227.403 149.205 C 227.531 149.049,228.210 148.552,228.912 148.102 C 229.613 147.651,230.298 147.187,230.434 147.071 C 230.570 146.955,231.076 146.591,231.558 146.262 C 232.039 145.933,232.693 145.455,233.011 145.201 C 233.329 144.946,233.826 144.564,234.115 144.350 C 235.323 143.461,238.427 140.608,241.502 137.559 C 242.129 136.936,243.297 135.559,244.096 134.497 C 244.895 133.436,245.824 132.304,246.159 131.982 C 246.494 131.660,246.769 131.296,246.769 131.174 C 246.769 131.052,246.833 130.952,246.911 130.952 C 247.078 130.952,248.411 128.917,248.643 128.308 C 248.730 128.079,248.880 127.891,248.975 127.891 C 249.071 127.891,249.150 127.695,249.150 127.456 C 249.150 126.932,248.069 127.692,246.075 129.617 C 245.460 130.211,244.580 130.999,244.120 131.367 C 243.659 131.735,243.155 132.156,243.000 132.302 C 242.845 132.448,242.203 132.874,241.573 133.248 C 240.942 133.622,240.302 134.045,240.150 134.187 C 239.998 134.329,239.493 134.665,239.027 134.933 C 238.561 135.201,238.027 135.553,237.840 135.715 C 237.653 135.877,236.908 136.329,236.184 136.719 C 232.428 138.744,231.267 139.352,230.102 139.903 C 227.238 141.259,226.753 141.487,226.009 141.825 C 225.582 142.018,225.168 142.177,225.088 142.177 C 225.009 142.177,224.380 142.445,223.690 142.772 C 223.000 143.099,222.305 143.368,222.145 143.368 C 221.985 143.369,221.625 143.489,221.345 143.635 C 221.066 143.780,220.109 144.154,219.219 144.465 C 218.330 144.776,217.372 145.113,217.092 145.215 C 216.811 145.317,215.912 145.598,215.093 145.840 C 214.274 146.082,213.394 146.389,213.137 146.523 C 212.880 146.657,212.322 146.767,211.896 146.768 C 211.471 146.768,211.042 146.849,210.944 146.948 C 210.845 147.046,209.739 147.386,208.486 147.704 C 207.233 148.022,205.901 148.397,205.527 148.538 C 205.153 148.679,204.408 148.798,203.873 148.802 C 203.337 148.806,202.418 148.955,201.832 149.132 C 201.245 149.310,200.306 149.591,199.745 149.756 C 199.184 149.922,198.040 150.086,197.204 150.120 C 196.367 150.154,195.594 150.257,195.485 150.347 C 195.376 150.438,194.644 150.593,193.859 150.692 C 193.074 150.791,191.837 150.982,191.110 151.116 C 190.384 151.251,189.111 151.361,188.283 151.361 C 187.394 151.361,186.488 151.463,186.069 151.610 C 183.651 152.464,161.163 152.471,157.894 151.619 C 157.321 151.470,156.171 151.361,155.175 151.361 C 154.225 151.361,153.036 151.282,152.532 151.185 C 152.028 151.089,150.796 150.902,149.793 150.769 C 148.791 150.637,147.820 150.448,147.636 150.349 C 147.452 150.251,146.741 150.168,146.057 150.167 C 145.373 150.165,144.354 150.060,143.793 149.934 C 140.710 149.244,139.385 148.991,137.948 148.819 C 137.072 148.714,136.154 148.525,135.907 148.399 C 135.661 148.273,135.115 148.117,134.694 148.053 C 133.689 147.901,131.230 147.302,130.387 147.004 C 130.020 146.875,129.420 146.769,129.055 146.769 C 128.689 146.769,128.106 146.647,127.758 146.497 C 126.958 146.154,125.146 145.649,124.150 145.490 C 123.729 145.423,123.231 145.287,123.044 145.187 C 122.734 145.022,122.242 144.869,119.643 144.129 C 119.175 143.996,118.639 143.813,118.452 143.722 C 118.265 143.632,117.768 143.483,117.347 143.392 C 116.926 143.302,115.931 142.985,115.136 142.689 C 114.341 142.392,113.308 142.014,112.840 141.847 C 112.372 141.681,111.182 141.227,110.194 140.840 C 109.206 140.453,108.340 140.136,108.270 140.136 C 108.200 140.136,107.707 139.939,107.175 139.697 C 105.766 139.058,105.643 139.007,104.337 138.517 C 103.682 138.272,102.725 137.877,102.211 137.639 C 101.696 137.401,101.046 137.105,100.765 136.982 C 100.485 136.859,99.375 136.341,98.299 135.831 C 97.224 135.321,96.152 134.848,95.918 134.779 C 95.685 134.710,95.378 134.561,95.238 134.447 C 94.989 134.245,93.281 133.338,92.262 132.867 C 91.689 132.602,91.651 132.580,90.675 131.930 C 90.289 131.673,89.895 131.463,89.800 131.463 C 89.705 131.463,89.263 131.204,88.818 130.887 C 88.374 130.571,87.571 130.080,87.034 129.795 C 86.497 129.511,85.873 129.139,85.646 128.968 C 85.420 128.797,84.724 128.350,84.099 127.976 C 83.475 127.602,82.571 127.009,82.090 126.658 C 81.610 126.307,81.123 126.020,81.008 126.020 C 80.893 126.020,80.738 125.921,80.663 125.800 C 80.588 125.679,79.991 125.239,79.337 124.822 C 78.682 124.405,77.782 123.796,77.336 123.469 C 74.970 121.731,72.694 120.006,72.619 119.895 C 72.572 119.826,72.156 119.481,71.694 119.129 C 70.718 118.387,70.490 118.205,70.094 117.857 C 69.934 117.717,69.538 117.382,69.213 117.113 C 66.805 115.117,60.465 108.778,58.766 106.667 C 58.668 106.546,58.467 106.316,58.319 106.157 C 57.143 104.890,53.823 100.554,52.891 99.065 C 52.598 98.597,52.022 97.679,51.611 97.024 C 50.839 95.792,48.639 92.018,48.639 91.925 C 48.639 91.895,48.228 91.003,47.724 89.941 C 46.667 87.711,45.918 85.881,45.918 85.526 C 45.918 85.391,45.815 85.129,45.688 84.944 C 45.562 84.760,45.252 83.920,45.000 83.078 C 44.748 82.236,44.431 81.203,44.295 80.782 C 44.160 80.361,43.980 79.673,43.897 79.252 C 43.813 78.831,43.631 78.027,43.492 77.466 C 42.656 74.089,42.602 73.465,42.602 67.262 C 42.602 60.982,42.572 61.311,43.481 57.483 C 43.626 56.875,43.808 56.033,43.886 55.612 C 43.964 55.191,44.185 54.409,44.378 53.873 C 44.570 53.338,44.728 52.791,44.728 52.658 C 44.728 52.525,44.963 51.853,45.250 51.166 C 45.537 50.478,45.843 49.685,45.929 49.405 C 46.097 48.855,46.150 48.738,47.390 46.173 C 51.290 38.105,58.165 30.227,66.241 24.570 C 66.896 24.111,67.470 23.688,67.517 23.628 C 67.564 23.569,67.790 23.421,68.020 23.300 C 68.250 23.179,68.977 22.689,69.636 22.212 C 70.294 21.734,71.101 21.199,71.429 21.022 C 71.756 20.846,72.442 20.425,72.953 20.087 C 74.750 18.898,83.056 14.626,83.569 14.626 C 83.638 14.626,84.130 14.428,84.662 14.187 C 85.194 13.946,85.782 13.683,85.969 13.603 C 86.156 13.523,86.692 13.293,87.160 13.093 C 87.628 12.892,88.622 12.537,89.371 12.302 C 90.119 12.067,91.090 11.729,91.528 11.550 C 91.966 11.371,92.444 11.224,92.590 11.224 C 92.736 11.224,93.296 11.078,93.834 10.900 C 94.373 10.721,95.272 10.447,95.833 10.289 C 96.395 10.132,97.198 9.889,97.619 9.750 C 98.040 9.611,98.844 9.395,99.405 9.271 C 102.277 8.634,103.384 8.364,103.552 8.261 C 103.653 8.198,104.292 8.042,104.972 7.915 C 105.651 7.787,106.820 7.559,107.568 7.408 C 109.827 6.952,111.433 6.660,112.330 6.541 C 112.798 6.480,113.327 6.351,113.505 6.255 C 113.804 6.095,114.928 5.960,120.153 5.455 C 127.610 4.734,132.963 4.546,139.031 4.789 C 146.768 5.099,151.683 5.129,150.425 4.859 C 149.864 4.738,149.120 4.514,148.772 4.361 C 148.425 4.207,147.983 4.082,147.790 4.082 C 147.598 4.082,147.002 3.927,146.467 3.738 C 145.931 3.549,144.651 3.320,143.622 3.230 C 140.405 2.949,137.775 2.591,136.941 2.322 C 136.500 2.179,135.106 1.980,133.844 1.879 C 132.581 1.778,130.514 1.586,129.252 1.452 C 127.989 1.318,125.196 1.198,123.044 1.185 C 117.287 1.150,116.221 1.045,115.723 0.466 L 115.322 -0.000 108.467 -0.000 L 101.611 0.000 101.443 0.383 M40.731 12.925 C 40.673 13.019,40.788 13.095,40.986 13.095 C 41.185 13.095,41.299 13.019,41.241 12.925 C 41.184 12.832,41.069 12.755,40.986 12.755 C 40.904 12.755,40.789 12.832,40.731 12.925 M89.116 15.046 C 84.102 16.488,81.844 21.318,84.131 25.709 C 85.757 28.832,88.669 30.152,92.492 29.501 C 94.064 29.233,94.266 29.175,94.643 28.878 C 94.736 28.804,95.209 28.441,95.692 28.069 C 96.176 27.698,96.621 27.238,96.682 27.048 C 96.742 26.857,96.864 26.701,96.952 26.701 C 97.099 26.701,97.472 25.972,98.196 24.271 C 98.358 23.889,98.468 23.165,98.465 22.486 C 98.448 17.656,93.562 13.768,89.116 15.046 M155.017 33.082 C 154.549 33.202,153.905 33.308,153.585 33.317 C 153.265 33.326,152.871 33.453,152.709 33.599 C 152.547 33.746,152.044 33.964,151.590 34.084 C 149.782 34.562,145.179 37.515,143.644 39.181 C 142.955 39.928,141.327 42.128,141.327 42.312 C 141.327 42.396,141.186 42.591,141.015 42.746 C 140.486 43.225,139.116 46.201,138.460 48.299 C 137.535 51.255,137.539 56.726,138.469 59.694 C 139.109 61.736,140.393 64.624,140.990 65.363 C 141.078 65.472,141.688 66.232,142.346 67.052 C 143.004 67.871,143.679 68.675,143.846 68.837 C 144.464 69.439,146.362 71.035,146.938 71.438 C 148.024 72.198,150.049 73.299,150.358 73.299 C 150.468 73.299,150.872 73.448,151.257 73.629 C 152.083 74.019,154.031 74.591,155.085 74.753 C 155.496 74.817,156.087 74.974,156.397 75.104 C 157.158 75.422,159.910 75.413,160.985 75.088 C 161.444 74.949,162.432 74.752,163.180 74.649 C 163.927 74.546,164.616 74.401,164.710 74.326 C 164.804 74.250,165.149 74.138,165.476 74.076 C 168.014 73.596,173.350 70.416,175.769 67.943 C 177.061 66.622,178.700 64.344,180.910 60.795 C 181.565 59.744,181.202 59.182,179.557 58.699 C 179.249 58.609,178.346 58.186,177.551 57.759 C 176.081 56.970,175.626 56.741,175.170 56.558 C 175.030 56.502,174.609 56.271,174.235 56.045 C 172.476 54.984,172.246 54.892,171.829 55.082 C 171.609 55.183,171.429 55.345,171.429 55.444 C 171.429 56.281,167.070 61.063,165.555 61.888 C 165.184 62.090,164.460 62.485,163.946 62.766 C 161.868 63.901,159.316 64.283,157.665 63.706 C 152.325 61.840,149.296 56.311,150.583 50.778 C 150.734 50.131,150.922 49.519,151.000 49.418 C 151.079 49.317,151.199 49.005,151.266 48.724 C 151.991 45.697,155.621 42.891,159.016 42.733 C 162.380 42.576,165.512 44.319,163.563 45.264 C 163.399 45.343,163.131 45.486,162.968 45.582 C 162.804 45.677,162.402 45.877,162.075 46.027 C 161.747 46.176,160.944 46.647,160.289 47.074 C 159.634 47.501,158.754 48.034,158.333 48.260 C 157.912 48.486,157.429 48.795,157.259 48.946 C 157.090 49.098,156.286 49.612,155.474 50.088 C 153.567 51.205,153.520 51.541,154.962 53.747 C 156.224 55.678,156.835 56.668,157.602 58.027 C 158.449 59.527,158.624 59.551,160.103 58.366 C 161.506 57.242,161.479 57.262,165.145 54.774 C 166.684 53.730,168.937 52.191,170.153 51.354 C 172.822 49.516,172.399 49.799,175.085 48.061 C 177.575 46.450,178.401 45.812,178.401 45.502 C 178.401 44.509,174.611 39.553,172.682 38.023 C 172.226 37.662,171.736 37.243,171.593 37.093 C 171.168 36.648,170.328 36.095,169.233 35.539 C 168.669 35.252,168.163 34.947,168.110 34.861 C 168.057 34.775,167.424 34.517,166.702 34.288 C 165.981 34.059,165.162 33.751,164.881 33.604 C 164.600 33.456,164.172 33.335,163.930 33.334 C 163.688 33.334,163.114 33.219,162.655 33.080 C 161.585 32.756,156.282 32.757,155.017 33.082 M124.660 34.029 C 120.029 34.136,117.824 34.433,117.026 35.057 C 116.803 35.231,116.472 35.374,116.291 35.374 C 115.927 35.374,113.595 36.690,113.395 37.008 C 113.326 37.117,113.077 37.255,112.842 37.314 C 112.607 37.373,112.415 37.497,112.415 37.588 C 112.415 37.680,112.319 37.756,112.202 37.757 C 111.958 37.758,109.027 40.699,108.135 41.837 C 107.016 43.267,106.027 45.540,105.025 48.991 C 104.393 51.165,104.438 57.304,105.100 59.216 C 105.288 59.760,105.442 60.295,105.442 60.404 C 105.442 60.610,106.123 62.414,106.576 63.410 C 107.747 65.983,111.444 70.000,113.939 71.410 C 117.870 73.631,121.171 74.226,128.912 74.109 L 131.888 74.065 131.933 68.378 C 131.957 65.251,131.912 62.627,131.832 62.547 C 131.753 62.467,130.049 62.375,128.046 62.341 C 123.419 62.264,122.780 62.148,121.232 61.110 C 115.408 57.202,117.126 47.062,123.810 45.906 C 124.324 45.817,126.269 45.744,128.131 45.744 C 130.364 45.744,131.595 45.680,131.745 45.555 C 132.067 45.288,132.082 34.214,131.760 34.094 C 131.371 33.949,129.043 33.928,124.660 34.029 M84.285 34.157 C 84.156 34.365,84.136 73.765,84.265 73.974 C 84.429 74.240,97.049 74.215,97.213 73.948 C 97.353 73.721,97.482 34.775,97.344 34.311 C 97.248 33.986,84.484 33.835,84.285 34.157 M131.037 75.850 L 130.187 75.967 130.985 75.994 C 131.424 76.008,131.830 75.944,131.888 75.850 C 131.946 75.757,131.969 75.692,131.940 75.707 C 131.911 75.722,131.505 75.786,131.037 75.850 M131.853 82.772 C 131.647 82.812,131.441 82.974,131.396 83.132 C 131.251 83.632,131.227 89.683,131.367 90.351 C 131.716 92.016,130.494 91.751,129.552 89.958 C 126.421 83.992,125.549 82.822,124.245 82.826 C 122.831 82.830,122.925 82.370,122.913 89.355 C 122.902 96.321,122.829 95.942,124.186 96.039 C 125.707 96.148,125.655 96.349,125.368 91.466 C 125.091 86.761,125.611 86.310,127.395 89.711 C 127.788 90.459,128.325 91.378,128.589 91.752 C 128.853 92.126,129.308 92.883,129.600 93.435 C 130.707 95.522,132.484 96.699,133.299 95.884 C 133.567 95.616,133.591 84.315,133.325 83.552 C 133.186 83.153,132.453 82.548,132.262 82.676 C 132.243 82.689,132.059 82.732,131.853 82.772 M177.955 82.782 C 177.032 82.934,176.439 84.474,175.854 88.243 C 175.386 91.255,175.215 91.557,174.425 90.767 C 174.158 90.500,173.999 90.083,173.921 89.449 C 173.859 88.938,173.697 88.214,173.561 87.840 C 173.425 87.466,173.311 86.727,173.307 86.197 C 173.300 85.302,172.797 83.559,172.392 83.027 C 172.289 82.892,171.953 82.826,171.528 82.857 L 170.833 82.908 170.703 83.929 C 170.599 84.739,170.642 85.176,170.911 86.054 C 171.327 87.407,171.866 89.755,172.024 90.899 C 172.089 91.366,172.244 91.944,172.368 92.185 C 172.493 92.426,172.648 93.089,172.712 93.657 C 173.150 97.529,176.050 96.656,176.625 92.479 C 176.680 92.079,176.829 91.484,176.956 91.156 C 177.083 90.829,177.224 90.080,177.268 89.492 C 177.485 86.648,178.844 87.635,179.325 90.986 C 180.172 96.884,183.275 97.918,183.919 92.517 C 183.980 92.003,184.138 91.199,184.269 90.731 C 184.523 89.827,185.164 87.042,185.644 84.754 C 186.022 82.955,185.964 82.823,184.805 82.823 C 183.656 82.823,183.572 82.924,183.235 84.710 C 183.087 85.496,182.900 86.484,182.820 86.905 C 182.739 87.326,182.669 88.335,182.663 89.149 C 182.643 92.036,180.979 91.836,180.591 88.899 C 180.502 88.223,180.354 87.446,180.264 87.173 C 180.173 86.899,180.024 86.204,179.932 85.629 C 179.785 84.712,179.564 84.057,179.105 83.180 C 178.950 82.883,178.431 82.703,177.955 82.782 M288.800 83.084 C 288.518 83.321,288.197 83.799,288.085 84.147 C 287.973 84.494,287.789 84.894,287.674 85.034 C 287.560 85.174,287.254 85.978,286.995 86.820 C 286.737 87.662,286.425 88.511,286.302 88.708 C 286.179 88.905,286.004 89.441,285.913 89.899 C 285.722 90.860,285.122 92.497,284.867 92.752 C 284.772 92.847,284.694 93.206,284.694 93.550 C 284.694 93.894,284.576 94.509,284.432 94.917 C 284.139 95.749,284.345 96.088,285.144 96.088 C 286.087 96.088,286.413 95.723,287.413 93.546 C 287.597 93.144,288.429 93.006,289.961 93.124 C 291.973 93.278,292.035 93.315,292.502 94.637 C 292.994 96.030,293.789 96.479,294.648 95.851 C 295.084 95.532,294.541 92.834,293.617 90.731 C 293.494 90.451,293.160 89.494,292.876 88.605 C 292.113 86.221,291.858 85.507,291.602 85.034 C 291.476 84.800,291.319 84.379,291.252 84.099 C 290.945 82.796,289.736 82.296,288.800 83.084 M354.278 82.941 C 353.588 83.281,352.922 84.291,352.624 85.450 C 352.502 85.923,352.238 86.845,352.038 87.500 C 351.837 88.155,351.568 89.035,351.439 89.456 C 351.081 90.629,350.520 92.203,350.246 92.798 C 350.111 93.093,350.000 93.439,350.000 93.568 C 350.000 93.697,349.894 93.953,349.764 94.138 C 348.880 95.400,349.170 96.088,350.584 96.088 C 351.556 96.088,351.925 95.748,352.202 94.594 C 352.518 93.277,352.698 93.184,354.996 93.152 C 357.230 93.122,357.221 93.117,357.679 94.417 C 358.077 95.548,358.449 95.922,359.286 96.029 C 360.354 96.166,360.677 95.818,360.317 94.919 C 360.161 94.529,360.034 94.026,360.034 93.801 C 360.034 93.576,359.912 93.269,359.762 93.120 C 359.613 92.971,359.387 92.487,359.260 92.045 C 358.724 90.176,358.337 88.955,357.900 87.755 C 357.645 87.054,357.336 86.135,357.215 85.714 C 356.388 82.841,355.734 82.224,354.278 82.941 M86.908 83.195 C 83.731 84.835,82.912 91.468,85.524 94.414 C 87.940 97.142,92.857 96.658,94.228 93.559 C 95.149 91.477,93.359 90.986,91.834 92.901 C 88.817 96.690,85.937 93.338,86.974 87.245 C 87.469 84.330,90.113 83.446,91.634 85.686 C 92.615 87.132,93.788 87.656,94.280 86.869 C 94.753 86.114,93.620 83.904,92.442 83.284 C 91.343 82.705,87.963 82.651,86.908 83.195 M99.372 83.132 C 97.032 84.083,96.213 86.510,96.628 91.260 C 96.793 93.138,97.742 94.887,98.895 95.432 C 99.082 95.520,99.426 95.703,99.660 95.838 C 101.093 96.665,104.527 95.963,105.877 94.568 C 107.939 92.436,107.869 86.054,105.761 84.068 C 104.487 82.867,101.206 82.387,99.372 83.132 M109.850 83.206 C 109.490 83.582,109.485 83.657,109.586 87.434 C 109.742 93.287,110.107 94.367,112.380 95.701 C 114.095 96.707,117.804 96.092,119.309 94.551 L 119.983 93.862 119.983 88.385 L 119.983 82.908 119.138 82.855 C 117.839 82.773,117.857 82.703,117.857 87.869 C 117.857 93.304,117.809 93.508,116.367 94.145 C 115.191 94.665,114.564 94.650,113.629 94.077 C 112.171 93.184,112.075 92.785,112.075 87.664 C 112.075 84.443,112.019 83.176,111.871 83.027 C 111.510 82.666,110.262 82.777,109.850 83.206 M135.490 82.934 C 135.426 82.998,135.374 83.379,135.374 83.781 C 135.374 84.742,135.721 84.933,137.267 84.823 C 139.038 84.696,138.946 84.384,138.946 90.511 C 138.946 96.466,138.870 96.179,140.407 96.052 C 141.744 95.941,141.704 96.125,141.568 90.731 C 141.502 88.112,141.455 85.818,141.464 85.633 C 141.494 85.041,141.980 84.864,143.574 84.864 C 145.301 84.864,145.626 84.601,145.300 83.465 L 145.140 82.908 140.373 82.863 C 137.751 82.838,135.554 82.870,135.490 82.934 M147.451 83.159 C 147.308 83.427,147.241 85.305,147.222 89.647 C 147.191 96.461,147.122 96.081,148.394 96.086 C 149.672 96.091,149.745 95.935,149.745 93.204 C 149.745 90.470,149.739 90.481,151.105 90.483 C 153.532 90.487,154.003 90.922,154.123 93.266 C 154.232 95.404,154.457 95.852,155.499 96.008 C 156.442 96.148,157.214 95.864,157.004 95.452 C 156.920 95.288,156.755 94.426,156.637 93.537 C 156.419 91.887,156.274 91.476,155.516 90.359 C 155.070 89.701,155.063 89.048,155.498 88.690 C 157.192 87.300,156.438 83.957,154.252 83.166 C 153.031 82.725,147.687 82.719,147.451 83.159 M158.107 82.937 C 157.856 83.187,158.271 84.263,159.278 85.969 C 159.498 86.344,159.875 87.043,160.115 87.524 C 160.355 88.005,160.728 88.659,160.944 88.977 C 161.160 89.295,161.383 89.705,161.439 89.888 C 161.496 90.071,161.659 90.527,161.801 90.901 C 161.975 91.360,162.063 92.220,162.070 93.537 C 162.082 95.956,162.110 96.005,163.448 95.997 C 164.808 95.989,165.038 95.725,164.845 94.388 C 164.537 92.245,165.435 89.150,166.918 87.245 C 167.027 87.105,167.326 86.492,167.581 85.884 C 167.837 85.276,168.149 84.588,168.275 84.354 C 169.036 82.940,167.823 82.141,166.639 83.275 C 166.133 83.759,164.626 86.421,164.626 86.829 C 164.626 87.317,163.911 88.265,163.546 88.263 C 162.930 88.258,162.803 88.073,161.937 85.913 C 160.868 83.249,160.489 82.823,159.180 82.823 C 158.652 82.823,158.169 82.874,158.107 82.937 M188.651 83.036 C 188.231 83.573,188.064 85.200,187.975 89.626 C 187.852 95.774,188.032 96.416,189.757 95.990 L 190.391 95.833 190.436 89.770 C 190.486 82.918,190.473 82.823,189.481 82.823 C 189.116 82.823,188.742 82.919,188.651 83.036 M193.891 83.149 C 193.527 83.514,193.517 83.612,193.604 86.023 C 193.653 87.397,193.697 90.070,193.700 91.964 C 193.710 96.428,193.508 96.165,196.834 96.052 C 202.235 95.868,203.720 94.309,203.515 89.040 C 203.322 84.065,202.300 83.135,196.752 82.884 C 194.340 82.776,194.258 82.783,193.891 83.149 M206.523 82.992 C 205.904 83.242,205.674 95.198,206.277 95.800 C 206.609 96.133,214.247 96.084,214.459 95.748 C 215.171 94.622,214.391 94.218,211.506 94.218 C 208.479 94.218,208.502 94.234,208.506 92.163 C 208.510 90.170,208.421 90.239,211.043 90.191 C 213.683 90.143,214.026 90.019,213.887 89.163 C 213.752 88.329,213.835 88.357,211.254 88.294 C 208.528 88.228,208.565 88.248,208.466 86.773 C 208.336 84.837,208.297 84.864,211.241 84.864 C 214.396 84.864,214.703 84.767,214.576 83.815 C 214.524 83.430,214.380 83.050,214.256 82.971 C 213.959 82.783,206.994 82.802,206.523 82.992 M221.532 83.092 C 221.475 83.240,221.429 86.150,221.429 89.558 L 221.429 95.756 221.856 95.950 C 222.149 96.084,222.534 96.096,223.089 95.989 L 223.895 95.833 223.908 93.437 C 223.927 90.184,223.647 90.476,226.748 90.476 C 230.198 90.476,229.994 90.294,229.947 93.325 C 229.903 96.121,229.805 95.977,231.766 95.992 C 232.956 96.002,233.229 96.056,233.424 96.323 C 233.625 96.597,233.653 96.120,233.623 92.964 C 233.591 89.509,233.450 88.550,233.138 89.658 C 233.046 89.985,233.022 89.952,232.996 89.456 C 232.979 89.128,232.930 88.643,232.886 88.378 C 232.836 88.069,232.871 87.935,232.985 88.005 C 233.092 88.071,233.171 87.923,233.183 87.638 L 233.204 87.160 233.323 87.670 C 233.400 87.998,233.482 87.362,233.553 85.884 C 233.690 83.023,233.687 82.969,233.359 83.152 C 233.205 83.239,232.833 83.202,232.431 83.060 C 230.246 82.289,229.932 82.638,229.932 85.838 L 229.932 88.444 229.496 88.610 C 228.935 88.823,224.486 88.822,224.150 88.608 C 223.941 88.476,223.895 87.972,223.895 85.847 C 223.895 84.418,223.833 83.153,223.757 83.036 C 223.543 82.705,221.662 82.752,221.532 83.092 M235.380 83.152 C 235.191 83.506,235.123 95.168,235.307 95.649 C 235.414 95.927,236.901 96.040,237.486 95.815 C 237.946 95.639,237.888 83.247,237.426 82.999 C 236.840 82.686,235.579 82.780,235.380 83.152 M240.837 82.973 C 240.546 83.162,240.539 95.539,240.830 95.830 C 241.088 96.088,242.869 96.004,243.045 95.725 C 243.126 95.598,243.193 94.450,243.195 93.176 C 243.198 90.375,243.183 90.398,244.961 90.512 C 247.138 90.652,247.660 91.360,247.849 94.432 C 247.934 95.807,248.128 96.088,248.989 96.088 C 250.235 96.088,250.503 95.877,250.315 95.043 C 250.226 94.643,250.090 93.645,250.015 92.823 C 249.882 91.384,249.851 91.303,249.164 90.557 C 248.330 89.652,248.346 89.376,249.290 88.390 C 250.729 86.889,249.569 83.657,247.419 83.176 C 246.368 82.940,241.137 82.779,240.837 82.973 M253.290 82.941 C 253.088 82.980,252.883 83.180,252.833 83.386 C 252.652 84.140,252.857 95.612,253.056 95.811 C 253.312 96.068,260.126 96.174,260.764 95.932 C 261.329 95.717,261.387 95.060,260.884 94.558 C 260.576 94.249,260.317 94.218,258.099 94.218 C 255.192 94.218,255.311 94.300,255.240 92.241 C 255.167 90.118,255.146 90.136,257.685 90.136 C 259.978 90.136,260.374 90.011,260.374 89.289 C 260.374 88.445,259.895 88.265,257.636 88.265 C 255.314 88.265,255.306 88.260,255.161 86.699 C 254.995 84.922,254.972 84.937,258.046 84.810 C 259.487 84.750,260.792 84.653,260.945 84.595 C 261.364 84.434,261.327 83.230,260.896 82.999 C 260.581 82.831,254.109 82.781,253.290 82.941 M275.002 83.185 C 273.964 83.645,273.668 83.945,273.194 85.013 C 272.133 87.406,273.392 89.050,277.309 90.384 C 280.481 91.464,281.215 93.006,279.078 94.099 C 277.547 94.881,276.857 94.673,274.987 92.861 C 274.503 92.391,274.020 92.008,273.915 92.009 C 271.852 92.034,272.616 94.497,275.067 95.721 C 276.289 96.331,279.584 96.260,280.554 95.603 C 282.816 94.069,283.271 92.186,281.760 90.613 C 280.877 89.694,279.613 88.776,279.231 88.776 C 279.123 88.776,278.719 88.630,278.335 88.452 C 277.951 88.274,277.274 88.000,276.831 87.843 C 275.105 87.234,274.711 85.984,275.975 85.125 C 277.108 84.355,278.089 84.495,279.702 85.655 C 282.235 87.477,283.590 86.297,281.553 84.042 C 280.443 82.813,276.890 82.348,275.002 83.185 M297.279 82.989 C 296.957 83.193,296.795 94.222,297.099 95.259 C 297.333 96.059,297.496 96.088,301.626 96.088 C 305.240 96.088,305.782 95.989,305.782 95.327 C 305.782 94.363,305.317 94.193,302.752 94.219 C 299.752 94.250,299.899 94.262,299.580 93.944 C 299.335 93.699,299.319 93.136,299.424 88.624 C 299.560 82.773,299.569 82.822,298.336 82.826 C 297.895 82.827,297.419 82.901,297.279 82.989 M305.948 83.259 C 305.755 83.767,305.747 85.648,305.936 86.130 C 306.059 86.446,306.070 86.444,306.163 86.088 C 306.217 85.882,306.191 85.757,306.107 85.809 C 305.899 85.938,305.909 83.811,306.118 83.259 C 306.209 83.019,306.246 82.823,306.199 82.823 C 306.152 82.823,306.039 83.019,305.948 83.259 M308.009 83.098 L 307.600 83.390 307.705 89.313 C 307.768 92.884,307.880 95.367,307.987 95.567 C 308.248 96.055,309.194 96.134,312.845 95.975 L 316.071 95.833 316.071 95.243 C 316.071 94.365,315.645 94.223,313.006 94.220 C 310.061 94.217,310.034 94.198,310.034 92.194 C 310.034 90.160,310.064 90.136,312.652 90.136 C 314.882 90.136,315.307 90.006,315.304 89.322 C 315.298 88.419,315.151 88.357,312.787 88.265 C 310.086 88.161,310.034 88.128,310.034 86.553 C 310.034 84.923,310.142 84.864,313.101 84.864 C 314.687 84.864,315.498 84.797,315.689 84.651 C 316.099 84.339,316.214 83.646,315.923 83.248 C 315.563 82.757,308.672 82.626,308.009 83.098 M320.068 83.108 C 317.348 84.281,317.423 88.485,320.180 89.353 C 320.382 89.417,320.640 89.581,320.754 89.717 C 320.867 89.854,321.059 89.966,321.180 89.966 C 321.737 89.966,324.172 91.058,324.785 91.583 C 326.057 92.672,325.788 93.466,323.861 94.307 L 322.806 94.767 322.016 94.384 C 321.581 94.173,320.716 93.554,320.094 93.007 C 318.943 91.995,318.595 91.847,318.231 92.211 C 317.600 92.842,318.443 94.750,319.619 95.352 C 319.913 95.503,320.199 95.697,320.256 95.785 C 320.441 96.071,322.779 96.262,324.176 96.105 C 326.215 95.877,327.891 94.268,327.891 92.538 C 327.891 91.187,325.885 89.030,324.313 88.691 C 323.989 88.622,323.531 88.465,323.293 88.344 C 323.056 88.223,322.588 88.073,322.252 88.010 C 320.723 87.723,319.965 85.891,321.046 85.093 C 322.229 84.219,323.575 84.446,325.142 85.782 C 327.680 87.946,328.775 86.217,326.337 83.895 C 325.207 82.819,321.744 82.384,320.068 83.108 M339.911 83.072 C 339.594 83.389,339.551 86.843,339.786 93.161 C 339.892 96.029,339.914 96.081,340.995 96.086 C 341.935 96.090,342.007 95.914,342.007 93.622 C 342.007 91.147,342.000 91.156,343.699 91.157 C 345.266 91.157,347.582 90.718,348.044 90.333 C 348.498 89.956,349.318 88.734,349.325 88.426 C 349.328 88.291,349.443 88.032,349.580 87.850 C 350.507 86.625,348.916 83.824,346.942 83.206 C 345.648 82.800,340.285 82.699,339.911 83.072 M362.703 83.070 C 362.379 83.393,362.394 83.029,362.415 90.356 C 362.431 96.095,362.430 96.088,363.589 96.088 C 364.936 96.088,364.989 95.968,364.857 93.203 C 364.722 90.376,364.734 90.360,366.734 90.555 C 368.964 90.773,369.388 91.288,369.388 93.777 C 369.388 95.624,369.539 95.863,370.784 95.985 C 372.106 96.114,372.193 95.955,371.940 93.863 C 371.692 91.811,371.400 90.936,370.723 90.213 C 370.040 89.483,370.093 89.041,370.925 88.516 C 372.653 87.425,371.724 84.199,369.393 83.197 C 368.433 82.784,363.090 82.682,362.703 83.070 M373.019 82.953 C 372.911 83.022,372.806 83.193,372.786 83.333 C 372.614 84.513,373.163 84.867,374.961 84.737 C 376.971 84.592,376.870 84.305,376.873 90.205 C 376.876 96.075,376.859 96.003,378.236 96.003 L 379.167 96.003 379.252 90.612 C 379.303 87.362,379.404 85.154,379.507 85.052 C 379.600 84.960,380.468 84.830,381.434 84.764 C 383.334 84.634,383.696 84.390,383.400 83.438 C 383.214 82.843,383.087 82.828,378.061 82.828 C 375.395 82.828,373.126 82.885,373.019 82.953 M386.986 83.003 C 385.833 83.339,384.694 85.253,384.694 86.855 C 384.694 87.970,386.547 89.656,388.240 90.081 C 388.475 90.140,388.864 90.291,389.104 90.416 C 389.344 90.542,389.685 90.645,389.861 90.645 C 391.325 90.650,392.498 92.686,391.539 93.560 C 389.989 94.971,388.865 94.916,387.415 93.356 C 385.969 91.801,384.034 91.714,384.533 93.226 C 385.155 95.109,386.917 96.088,389.683 96.088 L 391.806 96.088 392.658 95.415 C 395.282 93.341,394.913 90.602,391.807 89.097 C 390.933 88.674,389.426 88.112,388.861 87.999 C 386.976 87.622,386.652 85.081,388.441 84.715 C 389.740 84.450,390.415 84.669,391.597 85.741 C 393.717 87.662,395.219 86.450,393.497 84.209 C 392.554 82.982,389.197 82.360,386.986 83.003 M360.828 83.447 C 360.648 83.626,360.696 85.173,360.884 85.289 C 360.991 85.355,361.054 85.007,361.054 84.364 C 361.054 83.324,361.034 83.241,360.828 83.447 M103.313 84.982 C 105.118 85.842,105.534 91.436,103.938 93.368 C 102.272 95.385,99.716 94.645,99.129 91.978 C 97.987 86.787,100.009 83.406,103.313 84.982 M199.790 85.184 C 201.138 85.871,201.747 89.859,200.860 92.177 C 200.247 93.779,197.723 94.941,196.540 94.165 C 195.729 93.634,195.655 85.628,196.455 84.978 C 196.967 84.561,198.790 84.674,199.790 85.184 M246.459 85.123 C 247.718 85.557,248.056 87.091,247.123 88.135 C 246.436 88.904,243.481 89.112,243.228 88.409 C 242.998 87.771,243.106 85.264,243.378 84.936 C 243.664 84.592,245.185 84.684,246.459 85.123 M367.983 85.146 C 370.666 85.903,369.684 88.612,366.678 88.749 C 365.019 88.825,364.875 88.682,364.713 86.793 C 364.525 84.610,365.086 84.327,367.983 85.146 M152.859 85.158 C 155.415 85.964,154.496 88.591,151.605 88.743 C 149.607 88.848,149.490 88.754,149.490 87.063 C 149.490 84.818,150.310 84.354,152.859 85.158 M346.001 85.094 C 347.437 85.527,347.527 88.122,346.139 89.040 C 345.537 89.438,342.664 89.620,342.261 89.285 C 341.933 89.013,341.890 85.389,342.211 85.068 C 342.477 84.802,345.092 84.820,346.001 85.094 M360.790 86.239 C 360.727 86.341,360.761 86.509,360.865 86.613 C 361.004 86.752,361.054 86.703,361.054 86.429 C 361.054 86.018,360.966 85.955,360.790 86.239 M290.254 87.472 C 290.813 88.183,291.113 90.813,290.675 91.167 C 289.863 91.825,288.224 91.400,288.209 90.529 C 288.168 88.171,289.379 86.360,290.254 87.472 M337.983 88.350 C 337.984 89.099,338.014 89.384,338.050 88.984 C 338.086 88.584,338.085 87.971,338.049 87.623 C 338.012 87.275,337.983 87.602,337.983 88.350 M355.691 87.880 C 355.928 88.229,356.122 88.749,356.122 89.036 C 356.122 89.323,356.211 89.646,356.319 89.754 C 356.539 89.974,356.558 90.962,356.346 91.165 C 355.516 91.956,353.239 91.294,353.482 90.332 C 353.544 90.084,353.697 89.355,353.821 88.711 C 354.143 87.046,354.897 86.710,355.691 87.880 M305.891 87.961 C 305.834 88.175,305.800 89.307,305.816 90.476 L 305.845 92.602 305.945 90.136 C 306.052 87.479,306.049 87.372,305.891 87.961 M306.189 90.391 C 306.189 91.607,306.216 92.082,306.249 91.447 C 306.282 90.812,306.281 89.817,306.248 89.236 C 306.215 88.655,306.188 89.175,306.189 90.391 M360.714 89.031 C 360.714 89.171,360.791 89.286,360.884 89.286 C 360.978 89.286,361.054 89.171,361.054 89.031 C 361.054 88.890,360.978 88.776,360.884 88.776 C 360.791 88.776,360.714 88.890,360.714 89.031 M337.978 90.731 C 337.979 91.293,338.011 91.502,338.048 91.196 C 338.086 90.890,338.085 90.431,338.047 90.176 C 338.008 89.920,337.977 90.170,337.978 90.731 M115.998 91.879 C 115.992 92.230,116.063 92.517,116.156 92.517 C 116.360 92.517,116.360 92.054,116.156 91.582 C 116.039 91.309,116.008 91.368,115.998 91.879 M263.504 94.178 C 263.208 94.376,263.052 98.515,263.326 98.890 C 264.037 99.862,266.427 95.681,265.751 94.649 C 265.439 94.173,263.971 93.865,263.504 94.178 M330.203 94.239 C 330.163 94.368,330.093 94.948,330.048 95.529 C 330.002 96.109,329.834 96.929,329.673 97.349 C 329.331 98.246,329.439 98.900,329.952 99.034 C 330.483 99.173,331.780 98.234,331.797 97.698 C 331.800 97.600,331.953 97.227,332.136 96.868 C 332.602 95.953,332.735 94.894,332.434 94.489 C 332.126 94.073,330.320 93.871,330.203 94.239 M87.415 104.041 C 84.892 105.286,84.296 107.217,85.763 109.396 C 86.251 110.121,86.087 110.710,85.240 111.277 C 82.931 112.824,83.690 116.612,86.459 117.367 C 87.438 117.633,90.060 117.459,90.869 117.073 C 91.426 116.808,91.582 116.797,92.056 116.990 C 94.228 117.876,94.813 117.618,94.053 116.109 C 93.522 115.058,93.563 114.674,94.325 113.510 C 94.816 112.762,94.575 111.319,93.950 111.258 C 93.206 111.186,92.687 111.665,92.571 112.531 C 92.435 113.544,91.800 113.702,91.110 112.895 C 89.455 110.959,89.406 110.740,90.396 109.694 C 92.210 107.777,92.171 105.721,90.297 104.480 C 89.627 104.037,87.942 103.780,87.415 104.041 M105.017 104.051 C 103.263 104.449,101.497 106.300,101.497 107.741 C 101.497 109.069,103.041 110.505,105.442 111.411 C 107.561 112.210,108.020 112.454,108.886 113.243 C 109.927 114.191,109.105 115.202,107.060 115.487 C 105.643 115.684,105.224 115.552,104.550 114.696 C 103.222 113.010,100.672 113.152,101.592 114.860 C 102.784 117.073,105.298 118.014,108.299 117.370 C 111.121 116.765,112.336 113.605,110.478 111.701 C 109.919 111.128,106.631 109.354,106.128 109.354 C 105.071 109.354,103.897 107.933,104.353 107.206 C 105.494 105.387,106.639 105.291,108.345 106.871 C 110.294 108.676,111.796 108.334,110.872 106.297 C 110.095 104.584,107.336 103.526,105.017 104.051 M185.544 104.072 C 183.511 104.324,181.567 106.240,181.273 108.280 C 180.643 112.648,181.397 115.183,183.834 116.890 C 185.865 118.312,191.327 117.012,191.327 115.106 C 191.327 114.997,191.436 114.787,191.569 114.639 C 192.434 113.683,192.387 108.441,191.499 106.894 C 190.188 104.610,188.323 103.726,185.544 104.072 M213.520 104.059 C 212.454 104.338,211.565 105.073,210.409 106.633 C 209.646 107.661,209.382 110.770,209.879 112.863 C 210.738 116.480,212.172 117.648,215.534 117.467 C 217.553 117.359,218.458 116.905,219.350 115.555 C 220.861 113.269,218.671 112.539,216.867 114.728 C 216.343 115.364,214.972 115.741,213.937 115.534 C 211.942 115.135,211.410 108.615,213.210 106.623 C 214.418 105.286,215.217 105.343,216.837 106.885 C 218.791 108.745,219.615 109.025,219.826 107.901 C 220.263 105.570,216.500 103.277,213.520 104.059 M247.269 104.294 C 246.896 104.688,246.088 106.341,246.088 106.714 C 246.088 106.828,245.897 107.282,245.663 107.722 C 245.429 108.162,245.238 108.678,245.238 108.868 C 245.238 109.305,244.391 111.713,244.194 111.834 C 244.113 111.884,244.048 112.071,244.048 112.249 C 244.048 112.427,243.922 112.939,243.769 113.387 C 243.479 114.238,243.074 115.850,242.914 116.794 L 242.820 117.347 243.659 117.347 C 244.584 117.347,245.238 116.876,245.238 116.209 C 245.238 114.525,245.787 114.205,248.394 114.368 C 250.625 114.507,250.664 114.532,250.972 116.041 C 251.210 117.206,251.348 117.342,252.296 117.342 C 253.335 117.342,253.782 117.182,253.644 116.857 C 253.580 116.706,253.427 116.199,253.305 115.731 C 253.022 114.653,252.562 113.305,252.289 112.755 C 252.073 112.321,251.594 110.624,251.365 109.484 C 251.295 109.135,251.158 108.753,251.061 108.634 C 250.965 108.515,250.677 107.806,250.422 107.058 C 249.481 104.293,248.275 103.235,247.269 104.294 M326.409 104.195 C 326.031 104.519,325.340 105.720,325.340 106.054 C 325.340 106.160,325.197 106.429,325.022 106.652 C 324.847 106.875,324.624 107.402,324.525 107.823 C 324.166 109.355,323.829 110.404,323.567 110.804 C 323.420 111.029,323.299 111.381,323.299 111.588 C 323.299 111.969,322.529 114.053,322.268 114.378 C 321.991 114.723,321.625 116.910,321.808 117.134 C 321.988 117.356,322.785 117.412,323.403 117.246 C 323.810 117.137,324.393 116.183,324.573 115.333 C 324.750 114.499,325.525 114.219,327.340 114.331 C 329.252 114.450,329.655 114.757,330.003 116.357 C 330.179 117.164,330.539 117.368,331.695 117.312 L 332.738 117.262 332.680 116.671 C 332.647 116.346,332.484 115.810,332.317 115.481 C 332.149 115.151,331.808 114.234,331.559 113.443 C 331.310 112.652,331.037 111.922,330.953 111.820 C 330.869 111.719,330.718 111.256,330.618 110.792 C 330.518 110.329,330.367 109.796,330.281 109.609 C 330.196 109.422,329.921 108.618,329.671 107.823 C 328.675 104.662,327.452 103.302,326.409 104.195 M337.840 104.069 C 333.926 105.013,332.423 111.960,335.309 115.769 C 337.675 118.892,344.218 117.654,344.218 114.083 C 344.218 112.791,341.582 113.659,341.136 115.099 C 341.021 115.469,338.973 115.713,338.203 115.448 C 336.166 114.745,335.871 107.898,337.815 106.439 C 339.261 105.354,340.477 105.404,341.247 106.580 C 341.418 106.843,341.646 107.145,341.752 107.252 C 341.858 107.358,342.145 107.684,342.390 107.975 C 343.391 109.164,344.048 108.969,344.048 107.482 C 344.048 105.048,340.918 103.327,337.840 104.069 M392.867 104.028 C 390.483 104.269,388.647 107.334,389.838 109.083 C 390.523 110.088,392.026 111.117,393.107 111.320 C 397.357 112.117,398.427 115.452,394.459 115.532 L 393.027 115.561 392.161 114.658 C 390.535 112.964,389.004 112.955,389.374 114.642 C 389.957 117.293,395.815 118.656,397.715 116.582 C 398.062 116.202,398.494 115.941,398.916 115.853 L 399.575 115.717 399.622 113.853 L 399.669 111.990 399.027 111.981 C 398.561 111.975,398.244 111.840,397.874 111.490 C 397.594 111.224,397.058 110.862,396.684 110.685 C 396.310 110.508,395.889 110.296,395.748 110.214 C 395.608 110.132,395.003 109.863,394.404 109.617 C 392.030 108.643,391.394 107.562,392.557 106.476 C 393.689 105.418,394.896 105.560,396.223 106.909 L 397.123 107.823 398.392 107.823 L 399.660 107.823 399.660 106.973 L 399.660 106.122 399.089 106.122 C 398.623 106.122,398.326 105.937,397.463 105.102 C 396.798 104.459,396.263 104.082,396.018 104.082 C 395.803 104.082,395.177 104.052,394.625 104.017 C 394.074 103.981,393.283 103.986,392.867 104.028 M114.034 104.313 C 113.614 104.620,113.511 116.566,113.924 117.065 C 114.129 117.312,114.627 117.347,117.974 117.347 C 122.016 117.347,122.449 117.273,122.449 116.588 C 122.449 115.660,122.158 115.598,117.639 115.570 C 116.034 115.559,115.999 115.521,115.969 113.690 C 115.927 111.109,115.776 111.245,118.748 111.187 C 120.992 111.142,121.143 111.118,121.266 110.784 C 121.533 110.062,121.244 109.954,118.804 109.864 C 115.998 109.760,115.971 109.742,115.908 107.970 C 115.835 105.932,115.804 105.952,119.038 105.952 C 120.524 105.952,121.862 105.906,122.010 105.849 C 122.364 105.713,122.365 104.703,122.012 104.349 C 121.643 103.980,114.534 103.948,114.034 104.313 M124.502 104.409 C 124.188 104.723,124.175 105.009,124.204 110.583 C 124.240 117.418,124.225 117.347,125.666 117.347 C 126.709 117.347,126.701 117.369,126.701 114.548 C 126.701 111.753,126.646 111.822,128.764 111.972 C 130.887 112.122,131.008 112.254,131.199 114.626 C 131.402 117.137,131.679 117.499,133.264 117.318 C 134.128 117.220,133.828 113.454,132.837 111.957 C 132.175 110.959,132.181 110.790,132.908 109.767 C 134.287 107.827,133.265 105.140,130.922 104.546 C 129.119 104.089,124.912 104.000,124.502 104.409 M135.605 104.340 C 135.550 104.481,135.550 104.768,135.604 104.977 C 135.658 105.186,135.810 105.822,135.941 106.390 C 136.073 106.957,136.264 107.579,136.366 107.771 C 136.469 107.962,136.628 108.416,136.719 108.779 C 136.897 109.484,137.262 110.612,137.757 111.990 C 137.926 112.457,138.269 113.491,138.520 114.286 C 139.388 117.035,140.092 117.737,141.573 117.328 C 142.410 117.097,143.566 114.567,144.635 110.629 C 144.762 110.162,145.069 109.243,145.316 108.588 C 146.349 105.853,146.532 104.417,145.876 104.183 C 144.940 103.849,143.726 104.861,143.449 106.207 C 143.391 106.488,143.201 107.177,143.027 107.738 C 142.200 110.397,141.993 111.275,141.983 112.174 C 141.973 112.991,141.902 113.209,141.532 113.552 L 141.092 113.959 140.660 113.526 C 140.366 113.233,140.137 112.698,139.947 111.861 C 139.793 111.184,139.587 110.400,139.489 110.119 C 139.390 109.838,139.145 108.958,138.943 108.163 C 138.376 105.932,137.919 104.782,137.454 104.416 C 136.933 104.006,135.751 103.957,135.605 104.340 M149.007 104.394 C 148.540 104.861,148.251 113.520,148.612 116.240 C 148.776 117.474,150.329 117.982,150.867 116.976 C 151.138 116.469,151.040 106.788,150.744 104.932 C 150.601 104.034,149.659 103.742,149.007 104.394 M156.546 104.527 C 154.219 105.748,153.997 106.272,153.997 110.544 L 153.997 114.031 154.525 114.962 C 155.793 117.197,157.884 117.974,160.894 117.329 C 162.544 116.975,164.475 114.534,163.774 113.689 C 163.278 113.091,161.980 113.545,160.918 114.688 L 160.185 115.476 158.864 115.476 C 157.228 115.476,156.882 115.194,156.535 113.575 C 155.318 107.899,158.121 103.423,160.802 106.761 C 162.633 109.042,164.189 109.186,163.867 107.045 C 163.508 104.650,159.162 103.155,156.546 104.527 M168.154 104.208 C 166.024 104.289,166.165 103.802,166.207 110.942 C 166.249 117.942,166.020 117.327,168.612 117.386 C 173.498 117.497,174.830 117.347,174.830 116.688 C 174.830 115.685,174.662 115.628,171.631 115.605 C 168.374 115.580,168.574 115.716,168.512 113.493 C 168.446 111.139,168.340 111.224,171.353 111.224 C 173.637 111.224,173.793 111.204,173.895 110.884 C 174.047 110.405,173.839 109.865,173.500 109.857 C 170.553 109.786,168.911 109.642,168.580 109.426 C 168.037 109.071,168.017 107.078,168.550 106.400 L 168.902 105.952 171.690 105.952 C 174.732 105.952,174.830 105.919,174.830 104.892 C 174.830 104.048,174.159 103.980,168.154 104.208 M196.088 104.240 L 194.813 104.337 194.764 110.204 C 194.705 117.251,194.688 117.107,195.599 117.353 C 196.967 117.721,197.135 117.414,197.094 114.620 C 197.050 111.589,196.875 111.774,199.854 111.705 C 202.456 111.645,202.868 111.485,202.563 110.655 C 202.438 110.315,202.254 110.277,199.931 110.119 C 197.012 109.920,197.115 109.995,197.111 108.074 C 197.107 105.985,197.035 106.032,200.359 105.977 C 201.883 105.951,203.191 105.892,203.266 105.846 C 203.478 105.715,203.425 104.513,203.197 104.286 C 202.983 104.072,198.666 104.044,196.088 104.240 M222.678 104.243 C 222.130 104.476,222.052 105.111,222.005 109.694 C 221.982 111.986,221.947 114.014,221.928 114.201 C 221.844 115.023,222.162 116.932,222.416 117.134 C 222.698 117.358,229.961 117.456,230.513 117.244 C 230.853 117.113,230.862 116.191,230.529 115.751 C 230.304 115.454,230.086 115.436,227.641 115.511 C 224.237 115.614,224.579 116.253,224.557 109.749 C 224.548 106.815,224.506 104.382,224.466 104.341 C 224.295 104.170,223.015 104.100,222.678 104.243 M233.008 104.280 C 232.659 104.409,232.653 104.495,232.652 109.731 C 232.651 112.657,232.603 115.446,232.545 115.928 C 232.385 117.254,232.743 117.391,236.565 117.472 C 240.518 117.557,241.054 117.458,241.124 116.631 C 241.197 115.759,240.915 115.660,238.278 115.630 C 235.392 115.597,235.411 115.611,235.269 113.425 C 235.124 111.185,235.073 111.224,238.104 111.224 L 240.470 111.224 240.580 110.787 C 240.759 110.073,240.456 109.955,238.300 109.898 C 235.259 109.818,235.108 109.698,235.234 107.471 C 235.321 105.931,235.263 105.958,238.475 105.955 C 241.454 105.952,241.446 105.956,241.297 104.655 L 241.241 104.167 237.302 104.158 C 235.135 104.153,233.202 104.208,233.008 104.280 M255.646 104.286 C 255.300 104.632,255.360 116.730,255.709 117.080 C 256.060 117.431,257.698 117.447,257.984 117.103 C 258.213 116.828,258.108 113.347,257.800 110.940 C 257.448 108.197,258.497 108.028,259.757 110.625 C 260.031 111.188,260.511 112.053,260.824 112.546 C 261.138 113.039,261.395 113.487,261.395 113.542 C 261.395 113.597,261.610 113.920,261.873 114.261 C 262.137 114.602,262.551 115.225,262.794 115.646 C 263.651 117.133,265.150 117.911,265.835 117.226 C 266.135 116.926,266.117 104.441,265.816 104.239 C 265.552 104.061,264.185 104.126,263.985 104.326 C 263.815 104.496,263.830 110.896,264.002 111.440 C 264.591 113.303,263.060 113.090,262.079 111.173 C 261.878 110.780,261.532 110.153,261.309 109.779 C 261.087 109.405,260.663 108.639,260.368 108.078 C 260.073 107.517,259.724 106.937,259.593 106.789 C 259.461 106.642,259.354 106.442,259.354 106.346 C 259.354 105.145,256.419 103.513,255.646 104.286 M269.362 104.557 C 269.172 105.039,269.280 116.864,269.477 117.184 C 269.588 117.364,271.073 117.407,271.500 117.244 C 271.859 117.106,271.913 105.008,271.556 104.560 C 271.131 104.025,269.573 104.023,269.362 104.557 M274.681 104.452 C 274.587 104.697,274.569 107.388,274.634 111.064 L 274.745 117.262 275.935 117.262 L 277.126 117.262 277.123 114.286 C 277.121 112.649,277.083 110.850,277.038 110.289 C 276.960 109.320,276.976 109.266,277.355 109.212 C 277.989 109.122,279.252 110.639,279.252 111.491 C 279.252 111.602,279.373 111.794,279.521 111.916 C 279.772 112.125,280.074 112.631,280.680 113.861 C 282.006 116.547,283.509 117.830,284.771 117.350 L 285.204 117.185 285.204 111.155 C 285.204 107.693,285.134 104.940,285.040 104.693 C 284.764 103.967,283.374 103.880,283.007 104.565 C 282.735 105.074,282.718 110.322,282.985 111.330 C 283.262 112.372,283.152 112.755,282.577 112.755 C 282.051 112.755,281.949 112.611,280.391 109.664 C 280.035 108.992,279.536 108.130,279.281 107.750 C 279.027 107.369,278.592 106.607,278.315 106.056 C 277.503 104.441,275.090 103.376,274.681 104.452 M290.731 104.454 C 288.222 105.773,288.011 106.246,288.014 110.544 C 288.017 114.476,288.185 115.114,289.532 116.296 C 291.861 118.341,297.534 117.727,298.033 115.376 C 298.248 114.361,298.198 111.258,297.962 110.973 C 297.685 110.639,292.847 110.658,292.736 110.993 C 292.580 111.461,293.472 112.118,294.653 112.405 L 295.833 112.692 295.884 113.452 C 295.922 114.024,295.836 114.358,295.537 114.802 L 295.140 115.391 293.442 115.439 L 291.744 115.487 291.211 114.929 C 289.990 113.651,290.004 108.495,291.234 106.883 C 292.534 105.179,293.351 105.191,295.206 106.945 C 296.877 108.524,297.959 108.584,297.959 107.098 C 297.959 104.820,293.287 103.111,290.731 104.454 M306.101 104.363 C 305.804 104.720,305.662 116.159,305.945 116.903 C 306.109 117.335,306.179 117.361,307.014 117.313 L 307.908 117.262 307.908 113.402 C 307.908 109.179,307.961 108.927,308.757 109.353 C 309.197 109.589,309.249 109.719,309.792 111.990 C 310.803 116.213,312.333 118.302,313.373 116.879 C 313.707 116.422,314.627 113.771,314.628 113.265 C 314.628 113.125,314.739 112.797,314.876 112.535 C 315.012 112.274,315.176 111.779,315.241 111.436 C 315.403 110.570,315.960 109.358,316.207 109.334 C 317.237 109.232,317.338 109.493,316.991 111.353 C 316.245 115.352,316.664 117.347,318.250 117.347 C 319.183 117.347,319.180 117.362,319.312 111.031 C 319.461 103.873,319.542 104.331,318.111 104.198 C 316.161 104.015,315.770 104.453,314.722 107.993 C 314.598 108.414,314.372 108.988,314.222 109.269 C 314.071 109.549,313.947 109.903,313.947 110.056 C 313.946 110.208,313.831 110.607,313.690 110.943 C 313.550 111.279,313.435 111.885,313.435 112.290 C 313.435 114.387,311.679 113.646,311.310 111.395 C 311.241 110.974,311.088 110.438,310.970 110.204 C 310.852 109.970,310.703 109.511,310.640 109.184 C 310.576 108.856,310.457 108.435,310.375 108.248 C 310.293 108.061,309.962 107.243,309.638 106.429 C 308.884 104.530,308.422 104.082,307.224 104.082 C 306.604 104.082,306.263 104.167,306.101 104.363 M346.775 104.411 C 346.509 104.907,346.536 116.876,346.803 117.143 C 347.081 117.421,348.500 117.401,348.894 117.113 C 349.202 116.888,349.204 116.792,348.962 114.612 C 348.625 111.569,348.508 111.687,351.775 111.764 C 354.963 111.839,354.799 111.680,354.654 114.559 C 354.518 117.279,354.549 117.347,355.939 117.347 C 357.390 117.347,357.313 117.706,357.311 110.978 C 357.308 103.742,357.405 104.252,356.024 104.252 C 354.614 104.252,354.592 104.301,354.592 107.391 C 354.592 110.389,354.793 110.212,351.510 110.103 C 348.711 110.011,348.547 109.902,348.709 108.253 C 348.946 105.836,348.897 104.566,348.556 104.317 C 348.063 103.956,346.988 104.013,346.775 104.411 M365.755 104.440 C 365.509 104.790,365.476 105.562,365.476 110.916 C 365.476 117.792,365.380 117.350,366.868 117.344 C 368.199 117.340,368.185 117.420,367.878 111.820 C 367.659 107.820,368.351 107.604,370.150 111.111 C 370.589 111.968,371.115 112.954,371.317 113.300 C 371.518 113.647,371.964 114.413,372.307 115.002 C 373.437 116.947,374.356 117.619,375.511 117.347 C 376.122 117.203,376.169 116.696,376.181 110.259 C 376.192 103.940,376.219 104.082,375.000 104.082 C 373.775 104.082,373.753 104.164,373.846 108.369 C 373.938 112.482,373.882 112.736,373.001 112.237 C 372.618 112.019,371.727 110.654,371.264 109.575 C 371.175 109.369,370.892 108.871,370.635 108.469 C 370.377 108.067,370.048 107.531,369.904 107.279 C 368.853 105.431,368.586 105.050,368.066 104.653 C 367.227 104.013,366.125 103.912,365.755 104.440 M380.702 104.200 C 379.900 104.240,379.294 104.351,379.217 104.472 C 379.062 104.716,379.035 115.879,379.187 116.640 C 379.334 117.376,379.526 117.407,383.646 117.373 C 388.018 117.336,388.680 117.095,387.488 115.975 C 387.062 115.575,386.988 115.566,384.547 115.607 C 381.381 115.660,381.496 115.736,381.363 113.506 C 381.224 111.154,381.131 111.224,384.360 111.224 C 386.790 111.224,386.901 111.209,387.091 110.853 C 387.498 110.094,386.838 109.864,384.250 109.864 C 381.293 109.864,381.217 109.808,381.328 107.704 C 381.423 105.890,381.294 105.958,384.617 105.955 C 387.420 105.952,387.755 105.878,387.755 105.257 C 387.755 104.304,385.480 103.963,380.702 104.200 M360.116 104.629 C 360.062 104.845,360.040 107.721,360.068 111.021 C 360.126 117.814,360.022 117.379,361.565 117.306 L 362.500 117.262 362.500 110.799 L 362.500 104.337 361.357 104.287 C 360.286 104.240,360.208 104.261,360.116 104.629 M89.324 106.080 C 90.272 107.159,89.186 109.285,87.929 108.811 C 86.931 108.435,86.968 106.361,87.979 105.954 C 88.571 105.715,89.043 105.759,89.324 106.080 M187.811 106.014 C 188.462 106.286,189.239 107.152,189.397 107.782 C 189.458 108.026,189.611 108.422,189.736 108.662 C 190.510 110.144,189.614 114.409,188.356 115.233 C 187.952 115.497,185.910 115.615,185.266 115.411 C 183.588 114.878,183.125 108.857,184.621 107.032 C 185.587 105.853,186.630 105.521,187.811 106.014 M129.153 106.208 C 130.723 106.540,131.122 106.920,131.122 108.082 C 131.122 109.843,130.659 110.198,128.348 110.202 C 126.765 110.205,126.701 110.128,126.701 108.242 C 126.701 105.915,126.918 105.734,129.153 106.208 M350.550 107.823 C 350.550 108.151,350.585 108.284,350.627 108.121 C 350.670 107.957,350.670 107.689,350.627 107.526 C 350.585 107.362,350.550 107.496,350.550 107.823 M248.707 108.716 C 248.842 108.926,249.082 109.558,249.240 110.119 C 249.398 110.680,249.596 111.212,249.679 111.301 C 250.411 112.084,249.735 112.755,248.214 112.755 C 246.472 112.755,246.174 112.260,246.924 110.610 C 247.099 110.225,247.295 109.670,247.359 109.377 C 247.559 108.467,248.311 108.098,248.707 108.716 M327.689 108.680 C 327.894 108.871,328.061 109.217,328.061 109.450 C 328.061 109.682,328.214 110.308,328.401 110.840 C 328.945 112.388,328.703 112.748,327.116 112.752 C 325.893 112.756,325.414 112.489,325.561 111.889 C 325.616 111.664,325.770 111.020,325.904 110.459 C 326.410 108.341,326.852 107.900,327.689 108.680 M88.113 112.654 C 90.609 114.587,90.767 115.810,88.489 115.577 C 86.463 115.369,85.429 113.858,86.437 112.579 C 86.938 111.944,87.213 111.956,88.113 112.654 M82.086 113.549 C 81.912 113.723,81.952 114.423,82.143 114.541 C 82.244 114.603,82.313 114.401,82.313 114.041 C 82.313 113.419,82.282 113.353,82.086 113.549 M86.820 119.218 C 86.878 119.311,87.566 119.388,88.350 119.388 C 89.134 119.388,89.823 119.311,89.881 119.218 C 89.948 119.109,89.398 119.048,88.350 119.048 C 87.303 119.048,86.752 119.109,86.820 119.218 M92.772 119.218 C 92.830 119.311,93.102 119.388,93.377 119.388 C 93.652 119.388,93.878 119.311,93.878 119.218 C 93.878 119.124,93.605 119.048,93.272 119.048 C 92.912 119.048,92.710 119.116,92.772 119.218 M104.847 119.218 C 104.905 119.311,105.134 119.388,105.357 119.388 C 105.580 119.388,105.810 119.311,105.867 119.218 C 105.930 119.116,105.724 119.048,105.357 119.048 C 104.990 119.048,104.784 119.116,104.847 119.218 M107.398 119.218 C 107.456 119.311,107.724 119.388,107.993 119.388 C 108.263 119.388,108.531 119.311,108.588 119.218 C 108.652 119.115,108.417 119.048,107.993 119.048 C 107.570 119.048,107.334 119.115,107.398 119.218 M114.796 119.218 C 114.796 119.326,116.068 119.388,118.272 119.388 C 120.406 119.388,121.789 119.322,121.854 119.218 C 121.923 119.106,120.722 119.048,118.377 119.048 C 116.103 119.048,114.796 119.110,114.796 119.218 M132.058 119.218 C 132.116 119.311,132.537 119.388,132.993 119.388 C 133.450 119.388,133.871 119.311,133.929 119.218 C 133.994 119.111,133.644 119.048,132.993 119.048 C 132.343 119.048,131.992 119.111,132.058 119.218 M140.731 119.218 C 140.789 119.311,141.057 119.388,141.327 119.388 C 141.596 119.388,141.864 119.311,141.922 119.218 C 141.985 119.115,141.750 119.048,141.327 119.048 C 140.903 119.048,140.668 119.115,140.731 119.218 M149.405 119.218 C 149.463 119.311,149.730 119.388,150.000 119.388 C 150.270 119.388,150.537 119.311,150.595 119.218 C 150.659 119.115,150.424 119.048,150.000 119.048 C 149.576 119.048,149.341 119.115,149.405 119.218 M157.449 119.252 C 157.608 119.410,157.698 119.410,157.857 119.252 C 158.016 119.093,157.971 119.048,157.653 119.048 C 157.336 119.048,157.290 119.093,157.449 119.252 M159.439 119.218 C 159.497 119.311,159.769 119.388,160.044 119.388 C 160.319 119.388,160.544 119.311,160.544 119.218 C 160.544 119.124,160.272 119.048,159.939 119.048 C 159.579 119.048,159.376 119.116,159.439 119.218 M168.112 119.218 C 168.175 119.320,169.329 119.388,171.003 119.388 C 172.677 119.388,173.831 119.320,173.895 119.218 C 173.963 119.107,172.958 119.048,171.003 119.048 C 169.049 119.048,168.044 119.107,168.112 119.218 M184.779 119.218 C 184.837 119.311,185.066 119.388,185.289 119.388 C 185.512 119.388,185.742 119.311,185.799 119.218 C 185.862 119.116,185.656 119.048,185.289 119.048 C 184.922 119.048,184.716 119.116,184.779 119.218 M187.500 119.218 C 187.558 119.311,187.787 119.388,188.010 119.388 C 188.233 119.388,188.463 119.311,188.520 119.218 C 188.583 119.116,188.377 119.048,188.010 119.048 C 187.643 119.048,187.437 119.116,187.500 119.218 M195.493 119.218 C 195.551 119.311,195.781 119.388,196.003 119.388 C 196.226 119.388,196.456 119.311,196.514 119.218 C 196.576 119.116,196.370 119.048,196.003 119.048 C 195.637 119.048,195.431 119.116,195.493 119.218 M213.520 119.218 C 213.578 119.311,213.808 119.388,214.031 119.388 C 214.253 119.388,214.483 119.311,214.541 119.218 C 214.603 119.116,214.398 119.048,214.031 119.048 C 213.664 119.048,213.458 119.116,213.520 119.218 M216.122 119.252 C 216.281 119.410,216.372 119.410,216.531 119.252 C 216.689 119.093,216.644 119.048,216.327 119.048 C 216.009 119.048,215.964 119.093,216.122 119.252 M224.065 119.218 C 224.128 119.320,225.282 119.388,226.956 119.388 C 228.630 119.388,229.784 119.320,229.847 119.218 C 229.915 119.107,228.910 119.048,226.956 119.048 C 225.002 119.048,223.996 119.107,224.065 119.218 M234.099 119.218 C 234.163 119.321,235.429 119.388,237.330 119.388 C 239.231 119.388,240.497 119.321,240.561 119.218 C 240.630 119.107,239.511 119.048,237.330 119.048 C 235.149 119.048,234.030 119.107,234.099 119.218 M270.153 119.218 C 270.211 119.311,270.440 119.388,270.663 119.388 C 270.886 119.388,271.116 119.311,271.173 119.218 C 271.236 119.116,271.030 119.048,270.663 119.048 C 270.296 119.048,270.090 119.116,270.153 119.218 M275.476 119.252 C 275.635 119.410,275.726 119.410,275.884 119.252 C 276.043 119.093,275.998 119.048,275.680 119.048 C 275.363 119.048,275.317 119.093,275.476 119.252 M283.418 119.218 C 283.476 119.311,283.744 119.388,284.014 119.388 C 284.283 119.388,284.551 119.311,284.609 119.218 C 284.672 119.115,284.437 119.048,284.014 119.048 C 283.590 119.048,283.355 119.115,283.418 119.218 M291.412 119.218 C 291.469 119.311,291.890 119.388,292.347 119.388 C 292.804 119.388,293.225 119.311,293.282 119.218 C 293.348 119.111,292.997 119.048,292.347 119.048 C 291.697 119.048,291.346 119.111,291.412 119.218 M294.133 119.218 C 294.190 119.311,294.420 119.388,294.643 119.388 C 294.866 119.388,295.095 119.311,295.153 119.218 C 295.216 119.116,295.010 119.048,294.643 119.048 C 294.276 119.048,294.070 119.116,294.133 119.218 M306.718 119.218 C 306.775 119.311,307.043 119.388,307.313 119.388 C 307.582 119.388,307.850 119.311,307.908 119.218 C 307.972 119.115,307.737 119.048,307.313 119.048 C 306.889 119.048,306.654 119.115,306.718 119.218 M322.194 119.218 C 322.252 119.311,322.481 119.388,322.704 119.388 C 322.927 119.388,323.156 119.311,323.214 119.218 C 323.277 119.116,323.071 119.048,322.704 119.048 C 322.337 119.048,322.131 119.116,322.194 119.218 M330.867 119.218 C 330.925 119.311,331.308 119.388,331.718 119.388 C 332.128 119.388,332.510 119.311,332.568 119.218 C 332.633 119.112,332.311 119.048,331.718 119.048 C 331.124 119.048,330.802 119.112,330.867 119.218 M337.500 119.218 C 337.558 119.311,337.940 119.388,338.350 119.388 C 338.760 119.388,339.143 119.311,339.201 119.218 C 339.266 119.112,338.944 119.048,338.350 119.048 C 337.757 119.048,337.435 119.112,337.500 119.218 M340.782 119.252 C 340.941 119.410,341.032 119.410,341.190 119.252 C 341.349 119.093,341.304 119.048,340.986 119.048 C 340.669 119.048,340.624 119.093,340.782 119.252 M374.796 119.252 C 374.955 119.410,375.045 119.410,375.204 119.252 C 375.363 119.093,375.317 119.048,375.000 119.048 C 374.683 119.048,374.637 119.093,374.796 119.252 M381.463 119.218 C 381.463 119.324,382.508 119.388,384.259 119.388 C 385.939 119.388,387.097 119.320,387.160 119.218 C 387.228 119.107,386.255 119.048,384.364 119.048 C 382.543 119.048,381.463 119.111,381.463 119.218 M392.823 119.252 C 392.982 119.410,393.073 119.410,393.231 119.252 C 393.390 119.093,393.345 119.048,393.027 119.048 C 392.710 119.048,392.664 119.093,392.823 119.252 M394.813 119.218 C 394.871 119.311,395.253 119.388,395.663 119.388 C 396.073 119.388,396.456 119.311,396.514 119.218 C 396.579 119.112,396.257 119.048,395.663 119.048 C 395.070 119.048,394.748 119.112,394.813 119.218 M122.789 143.294 C 123.547 143.591,124.046 143.705,123.885 143.545 C 123.791 143.451,123.448 143.333,123.124 143.284 C 122.799 143.234,122.649 143.239,122.789 143.294 M216.771 143.507 C 216.723 143.583,216.910 143.613,217.186 143.572 C 217.462 143.532,217.687 143.469,217.687 143.433 C 217.687 143.303,216.855 143.370,216.771 143.507 M66.122 153.946 C 66.281 154.104,66.372 154.104,66.531 153.946 C 66.689 153.787,66.644 153.741,66.327 153.741 C 66.009 153.741,65.964 153.787,66.122 153.946 " stroke="none" fill="#fafafa" fill-rule="evenodd"></path></g></svg>